#!OML:ASF H:\MichaelJackson\Top Level 1\Subject 1\Session 1\male.ASF
:FULLY-SPECIFIED
:DEGREES
648
root 3.74229 15.5961 29.7318 5.52084 6.87342 2.93915
lowerback -1.49663 -2.98236 2.36387
upperback 0.468219 -3.99994 -2.40151
thorax 0.985015 -1.97983 -3.87469
lowerneck -5.2995 -0.821091 4.74573
upperneck 3.13783 -1.48666 1.18738
head 1.85964 -0.651124 -0.480125
rclavicle -2.6662e-014 -4.96962e-015
rhumerus 1.56593 -25.2121 -2.04016
rradius 36.3083
rwrist -12.6479
rhand -39.929 -50.4689
rfingers 7.12502
rthumb -12.8993 -440.05
lclavicle -2.6662e-014 -4.96962e-015
lhumerus -50.57 -35.1309 113.18
lradius 53.0721
lwrist 31.4391
lhand 25.7508 29.0377
lfingers 7.12502
lthumb 49.8495 50.3391
rfemur -19.9987 -11.4495 -3.4892
rtibia 46.8854
rfoot -26.1798 -4.69959
rtoes -39.0335
lfemur -6.18284 -17.3646 3.53292
ltibia 15.8031
lfoot -21.5946 8.19185
ltoes -34.1674
649
root 3.74785 15.5956 29.7204 5.45329 6.93773 2.97149
lowerback -1.43164 -2.97746 2.31398
upperback 0.459705 -3.99155 -2.39933
thorax 0.944098 -1.9768 -3.84015
lowerneck -5.31733 -0.856007 4.72943
upperneck 3.28242 -1.53726 1.19602
head 1.90926 -0.673032 -0.477386
rclavicle 2.46741e-014 1.8487e-014
rhumerus 1.533 -25.2206 -1.98662
rradius 36.205
rwrist -12.501
rhand -39.9893 -50.3207
rfingers 7.12502
rthumb -12.9575 -439.898
lclavicle 2.46741e-014 1.8487e-014
lhumerus -50.6966 -35.4023 113.389
lradius 53.0506
lwrist 31.0459
lhand 25.7601 28.5735
lfingers 7.12502
lthumb 49.8581 49.8704
rfemur -19.9188 -11.3626 -3.54951
rtibia 46.8641
rfoot -26.109 -4.79052
rtoes -39.0013
lfemur -6.14559 -17.4047 3.49176
ltibia 15.7325
lfoot -21.5885 8.13249
ltoes -34.1576
650
root 3.75304 15.5956 29.7097 5.39299 7.00465 3.00359
lowerback -1.38009 -2.97732 2.25844
upperback 0.451343 -3.98968 -2.39473
thorax 0.91087 -1.97689 -3.80086
lowerneck -5.32692 -0.888341 4.71538
upperneck 3.4034 -1.5832 1.19834
head 1.9498 -0.693317 -0.476665
rclavicle 1.43622e-014 3.18055e-014
rhumerus 1.52683 -25.2552 -1.95198
rradius 36.0922
rwrist -12.3397
rhand -40.0527 -50.2074
rfingers 7.12502
rthumb -13.0186 -439.781
lclavicle 1.43622e-014 3.18055e-014
lhumerus -50.792 -35.6036 113.558
lradius 53.0042
lwrist 30.6325
lhand 25.8584 28.1186
lfingers 7.12502
lthumb 49.9481 49.3685
rfemur -19.8368 -11.3076 -3.60999
rtibia 46.8305
rfoot -26.047 -4.8525
rtoes -38.9721
lfemur -6.11478 -17.4626 3.45362
ltibia 15.6588
lfoot -21.5785 8.07469
ltoes -34.1327
651
root 3.75789 15.5961 29.6999 5.33613 7.07309 3.02549
lowerback -1.34313 -2.98092 2.20817
upperback 0.447233 -3.99314 -2.38582
thorax 0.8897 -1.97933 -3.7612
lowerneck -5.32915 -0.91788 4.69794
upperneck 3.49451 -1.62403 1.20216
head 1.97941 -0.711764 -0.47446
rclavicle -6.78353e-014 -1.43125e-014
rhumerus 1.53716 -25.291 -1.92612
rradius 35.9754
rwrist -12.1866
rhand -40.1091 -50.1441
rfingers 7.12502
rthumb -13.073 -439.714
lclavicle -6.78353e-014 -1.43125e-014
lhumerus -50.8398 -35.7194 113.667
lradius 52.9441
lwrist 30.2792
lhand 26.0213 27.7588
lfingers 7.12502
lthumb 50.0971 48.9304
rfemur -19.7488 -11.2783 -3.659
rtibia 46.7817
rfoot -25.9924 -4.89581
rtoes -38.9533
lfemur -6.09066 -17.5539 3.42769
ltibia 15.5896
lfoot -21.563 8.03435
ltoes -34.089
652
root 3.76249 15.5972 29.6908 5.2805 7.1411 3.02737
lowerback -1.31918 -2.98601 2.17733
upperback 0.448079 -3.99914 -2.37319
thorax 0.879664 -1.98267 -3.72957
lowerneck -5.32703 -0.945521 4.68346
upperneck 3.55738 -1.66157 1.20659
head 1.99904 -0.729171 -0.472222
rclavicle -1.50331e-014 3.97569e-015
rhumerus 1.55019 -25.3057 -1.90151
rradius 35.8625
rwrist -12.0632
rhand -40.1491 -50.1231
rfingers 7.12502
rthumb -13.1115 -439.691
lclavicle -1.50331e-014 3.97569e-015
lhumerus -50.8403 -35.7583 113.717
lradius 52.8797
lwrist 30.0642
lhand 26.1807 27.5457
lfingers 7.12502
lthumb 50.2429 48.64
rfemur -19.6556 -11.2667 -3.68462
rtibia 46.718
rfoot -25.942 -4.92637
rtoes -38.9458
lfemur -6.07282 -17.6815 3.42227
ltibia 15.5325
lfoot -21.5403 8.02417
ltoes -34.0299
653
root 3.76685 15.5987 29.6825 5.22715 7.20429 3.00849
lowerback -1.30752 -2.98993 2.16758
upperback 0.452425 -4.00413 -2.35789
thorax 0.878946 -1.98517 -3.70786
lowerneck -5.32247 -0.973561 4.66819
upperneck 3.59848 -1.69921 1.21789
head 2.01115 -0.746949 -0.467493
rclavicle 2.28354e-014 2.38542e-014
rhumerus 1.55629 -25.2835 -1.87217
rradius 35.7605
rwrist -11.9811
rhand -40.1722 -50.1328
rfingers 7.12502
rthumb -13.1338 -439.699
lclavicle 2.28354e-014 2.38542e-014
lhumerus -50.8035 -35.7335 113.716
lradius 52.8207
lwrist 30.0225
lhand 26.2929 27.502
lfingers 7.12502
lthumb 50.3455 48.5415
rfemur -19.5631 -11.2651 -3.68493
rtibia 46.6429
rfoot -25.8946 -4.94966
rtoes -38.9474
lfemur -6.06295 -17.8443 3.43703
ltibia 15.4926
lfoot -21.508 8.0571
ltoes -33.9644
654
root 3.77094 15.6006 29.6748 5.17582 7.257 2.96829
lowerback -1.30688 -2.99144 2.17643
upperback 0.459672 -4.00639 -2.33849
thorax 0.886636 -1.98603 -3.69308
lowerneck -5.31888 -1.00082 4.64877
upperneck 3.625 -1.73568 1.23948
head 2.01878 -0.76425 -0.458666
rclavicle 2.15184e-014 1.21259e-014
rhumerus 1.55639 -25.2199 -1.83843
rradius 35.6742
rwrist -11.9371
rhand -40.1805 -50.145
rfingers 7.12502
rthumb -13.1417 -439.711
lclavicle 2.15184e-014 1.21259e-014
lhumerus -50.7377 -35.6596 113.681
lradius 52.7727
lwrist 30.1465
lhand 26.3198 27.5973
lfingers 7.12502
lthumb 50.37 48.6236
rfemur -19.4774 -11.2644 -3.65886
rtibia 46.5621
rfoot -25.8481 -4.966
rtoes -38.9543
lfemur -6.05806 -18.0333 3.47106
ltibia 15.4723
lfoot -21.4675 8.13764
ltoes -33.9051
655
root 3.77465 15.6026 29.6675 5.12975 7.29721 2.91105
lowerback -1.31549 -2.98965 2.2005
upperback 0.466158 -4.00466 -2.31814
thorax 0.898073 -1.98475 -3.68633
lowerneck -5.31761 -1.02744 4.62664
upperneck 3.64612 -1.77176 1.27451
head 2.02519 -0.781136 -0.445088
rclavicle 4.79568e-014 -3.97569e-015
rhumerus 1.54502 -25.1108 -1.80112
rradius 35.6073
rwrist -11.923
rhand -40.1736 -50.1511
rfingers 7.12502
rthumb -13.1351 -439.717
lclavicle 4.79568e-014 -3.97569e-015
lhumerus -50.6639 -35.5582 113.626
lradius 52.7426
lwrist 30.3917
lhand 26.249 27.7763
lfingers 7.12502
lthumb 50.3053 48.8373
rfemur -19.4063 -11.2613 -3.61022
rtibia 46.4822
rfoot -25.8027 -4.97422
rtoes -38.9593
lfemur -6.05779 -18.2263 3.51987
ltibia 15.4705
lfoot -21.4218 8.25893
ltoes -33.8724
